<svg xmlns="http://www.w3.org/2000/svg" width="37.301" height="41.72" viewBox="0 0 37.301 41.72"><defs><style>.a{fill:#f1b986;}.b{fill:#f1d0a5;}.c{fill:#f4dd45;}.d{fill:#ecc32e;}.e{fill:#da4a54;}.f{fill:#c32430;}.g{fill:#dd636e;}</style></defs><g transform="translate(0.611 0.611)"><g transform="translate(5.851)"><path class="a" d="M130.057,167.755h.014a2.12,2.12,0,0,0,0-4.241h-19.5a2.12,2.12,0,0,0,0,4.241h.014" transform="translate(-108.281 -150.801)"/><path class="b" d="M153.383,90.517a95.645,95.645,0,0,0-18.5,0,65.594,65.594,0,0,0-.423,11.5,5.427,5.427,0,0,0,5.169,5.145q4.505.213,9.01,0a5.427,5.427,0,0,0,5.169-5.145A65.573,65.573,0,0,0,153.383,90.517Z" transform="translate(-132.094 -83.34)"/><path class="a" d="M134.887,90.513q4.625-.449,9.251-.448a24.634,24.634,0,0,0-4.684.453q-.364,5.807-.214,11.614c.065,2.548,1,4.625,2.218,5.1q-.912-.025-1.825-.068a5.428,5.428,0,0,1-5.169-5.145A65.665,65.665,0,0,1,134.887,90.513Z" transform="translate(-132.099 -83.337)"/><path class="c" d="M123.593,17.865c-3.545,1.369-8.58.766-11.118-1.772,0,0-.6,4.12-3.725,4.12l-1.362.458c-3.636-14.274,4.12-10.46,4.12-10.46a3.689,3.689,0,0,1,2.913-2.148c.1-.012.2-.021.295-.027h.024a6.467,6.467,0,0,1,2.286.345c.246.079.481.167.7.257a10.752,10.752,0,0,1,1.669.858l.027.018c.8-1.056,1.559-2.012,2.4-2.012a.873.873,0,0,1,.74.342c.6.792.108,2.7.068,2.845l0,.007,0-.007,0-.011c.107-.27,1.306-3.175,3.457-3.175a1.681,1.681,0,0,1,.366.037c1.6.354.348,3.158.21,3.455l0,.008-.007.015c.068-.087,2.753-3.5,3.946-1.932v0C131.806,10.672,127.136,16.5,123.593,17.865Z" transform="translate(-106.418 -7.5)"/><path class="d" d="M358.7,22.316h0c-.6-.6-2.693,2.242-3.948,1.934l.009-.017-.007.015C354.82,24.161,357.505,20.753,358.7,22.316Z" transform="translate(-334.515 -20.732)"/><path class="d" d="M309.145,7.536c-.906-.206-1.746,1.519-2.221,2.744a1.014,1.014,0,0,1-1.48.5l-.13-.08v0l0-.007h0l0-.011c.107-.27,1.306-3.175,3.457-3.175A1.686,1.686,0,0,1,309.145,7.536Z" transform="translate(-289.107 -7.499)"/><path class="d" d="M114.419,14.413c-2.593.457-3.573,6.4-1.947,8.03,0,0-.6,4.12-3.725,4.12l-1.362.458c-3.636-14.274,4.12-10.46,4.12-10.46A3.689,3.689,0,0,1,114.419,14.413Z" transform="translate(-106.415 -13.85)"/><path class="d" d="M238.97,7.842c-.911-.911-1.519,3.763-3.571,4.512s-2.244-.208-2.244-.208h0c1.01-.374,1.863-1.555,2.678-2.633h0l.074-.1c.031-.042.063-.084.095-.125.738-.963,1.45-1.788,2.228-1.788A.873.873,0,0,1,238.97,7.842Z" transform="translate(-222.828 -7.5)"/><path class="d" d="M208.278,14.065h0Z" transform="translate(-199.955 -13.529)"/></g><path class="e" d="M272.011,259.332v13.774a1.874,1.874,0,0,1-1.476,1.831L258.3,277.588H256.72V259.981H258.3l11.441-2.48A1.873,1.873,0,0,1,272.011,259.332Z" transform="translate(-238.622 -237.09)"/><path class="f" d="M83.038,259.981v17.607h-1.7l-12.235-2.651a1.874,1.874,0,0,1-1.476-1.831V259.332a1.873,1.873,0,0,1,2.27-1.83l11.441,2.48Z" transform="translate(-64.94 -237.09)"/><path class="g" d="M235.9,306.026V288.419h3.275v17.607" transform="translate(-219.5 -265.528)"/><g transform="translate(0 23.932)"><path class="b" d="M36.968,306.164h-.641a1.713,1.713,0,0,1-1.713-1.713v-1.538a1.713,1.713,0,0,1,1.713-1.713h.641a1.713,1.713,0,0,1,1.713,1.713v1.538A1.713,1.713,0,0,1,36.968,306.164Z" transform="translate(-34.614 -301.2)"/><path class="a" d="M37.3,306.132a1.625,1.625,0,0,1-.329.033h-.641a1.713,1.713,0,0,1-1.713-1.714v-1.538a1.713,1.713,0,0,1,1.713-1.714h.641a1.62,1.62,0,0,1,.329.033,1.713,1.713,0,0,0-1.383,1.681v1.538A1.713,1.713,0,0,0,37.3,306.132Z" transform="translate(-34.615 -301.2)"/><g transform="translate(32.012)"><path class="b" d="M429.823,306.164h-.641a1.713,1.713,0,0,1-1.713-1.713v-1.538a1.713,1.713,0,0,1,1.713-1.713h.641a1.713,1.713,0,0,1,1.713,1.713v1.538A1.713,1.713,0,0,1,429.823,306.164Z" transform="translate(-427.469 -301.2)"/><path class="a" d="M430.153,306.132a1.626,1.626,0,0,1-.329.033h-.641a1.713,1.713,0,0,1-1.713-1.714v-1.538a1.713,1.713,0,0,1,1.713-1.714h.641a1.622,1.622,0,0,1,.329.033,1.712,1.712,0,0,0-1.383,1.681v1.538A1.712,1.712,0,0,0,430.153,306.132Z" transform="translate(-427.47 -301.2)"/></g></g></g><g transform="translate(0 0)"><path d="M227.434,232.571a.611.611,0,1,0-1.1-.524,1.584,1.584,0,0,1-2.863,0,.611.611,0,0,0-1.1.524,2.807,2.807,0,0,0,5.072,0Z" transform="translate(-206.399 -212.818)"/><ellipse cx="0.883" cy="1.314" rx="0.883" ry="1.314" transform="translate(13.103 14.608)"/><ellipse cx="0.883" cy="1.314" rx="0.883" ry="1.314" transform="translate(22.131 14.608)"/><path d="M327.275,313.06a.611.611,0,0,0-.727-.468l-6.767,1.467a.611.611,0,1,0,.259,1.195l6.767-1.467A.611.611,0,0,0,327.275,313.06Z" transform="translate(-295.491 -287.108)"/><path d="M326.547,340.463l-6.767,1.467a.611.611,0,1,0,.259,1.194l6.767-1.467a.611.611,0,0,0-.259-1.194Z" transform="translate(-295.49 -312.707)"/><path d="M62.09,23.932h-.366v-1.08a2.484,2.484,0,0,0-3.011-2.427l-3.186.69a6.064,6.064,0,0,0,.37-1.793q.031-.6.05-1.21a2.732,2.732,0,0,0-.042-5.346q-.11-2.3-.38-4.581A12.586,12.586,0,0,0,58.433,3.71a2.074,2.074,0,0,0-.189-1.886,1.567,1.567,0,0,0-1.272-.65,3.225,3.225,0,0,0-1.947.855A2.174,2.174,0,0,0,54.749.737,1.648,1.648,0,0,0,53.247,0a3.635,3.635,0,0,0-2.7,1.382,2.013,2.013,0,0,0-.346-.8A1.481,1.481,0,0,0,48.977,0c-.99,0-1.772.821-2.549,1.817a11.818,11.818,0,0,0-1.312-.636c-.243-.1-.493-.19-.745-.273a7.044,7.044,0,0,0-2.5-.373h-.026c-.113.006-.223.016-.337.031a4.177,4.177,0,0,0-3.1,1.986c-1.326-.465-3.466-.632-4.632,1.258a.611.611,0,1,0,1.04.642C35.9,2.687,38.3,3.823,38.4,3.871a.611.611,0,0,0,.813-.268,3.086,3.086,0,0,1,2.447-1.823c.083-.01.164-.018.247-.023l.039,0a5.843,5.843,0,0,1,2.053.316c.223.072.445.154.659.241a10.6,10.6,0,0,1,1.026.488,5.507,5.507,0,0,1-1.99,1.883.611.611,0,0,0,.423,1.147,7.305,7.305,0,0,0,2.833-2.677c.682-.9,1.456-1.93,2.03-1.93.164,0,.217.052.255.1a3.724,3.724,0,0,1-.038,2.32.611.611,0,0,0,1.16.38c.011-.028,1.109-2.8,2.893-2.8.364,0,.442.124.468.165.283.45-.1,1.744-.455,2.476a.611.611,0,0,0,1.033.64A11.02,11.02,0,0,1,55.31,3.4c.961-.9,1.475-1,1.653-1h0a.352.352,0,0,1,.306.169,1.078,1.078,0,0,1-.015.812c-.6,2.125-4.036,5.988-6.728,7.028-3.512,1.357-8.207.624-10.465-1.634a.611.611,0,0,0-1.037.344A6.585,6.585,0,0,1,38.4,10.98a2.776,2.776,0,0,1-2.493,1.733H35.86a2.717,2.717,0,0,0-.909.156A20.841,20.841,0,0,1,34.228,6.5a.611.611,0,0,0-1.217-.114,22.845,22.845,0,0,0,.855,7.2,2.729,2.729,0,0,0,1.413,4.532q.02.606.05,1.21a6.056,6.056,0,0,0,.343,1.722l-2.858-.619A2.484,2.484,0,0,0,29.8,22.852v1.08h-.366a2.327,2.327,0,0,0-2.324,2.324v1.538a2.327,2.327,0,0,0,2.324,2.324H29.8v6.508a2.5,2.5,0,0,0,1.958,2.428L44,41.706h0l.051.008.012,0a.614.614,0,0,0,.062,0H47.4a.614.614,0,0,0,.062,0l.012,0,.051-.008h0l12.235-2.651a2.5,2.5,0,0,0,1.958-2.428v-.833a.611.611,0,0,0-1.222,0v.833a1.269,1.269,0,0,1-.995,1.234L48.013,40.351V23.995l10.96-2.375A1.262,1.262,0,0,1,60.5,22.852v1.282a2.327,2.327,0,0,0-1.377,2.122v1.538A2.327,2.327,0,0,0,60.5,29.916v3.432a.611.611,0,0,0,1.222,0v-3.23h.366a2.327,2.327,0,0,0,2.324-2.324V26.256a2.327,2.327,0,0,0-2.325-2.324Zm-5.215-8.487a1.51,1.51,0,0,1-.9,1.378q.018-1.382-.022-2.768A1.512,1.512,0,0,1,56.874,15.445Zm-22.523,0a1.512,1.512,0,0,1,.918-1.389c-.026.921-.032,1.845-.02,2.767A1.51,1.51,0,0,1,34.351,15.445Zm2.2,3.815c-.092-1.776-.108-3.579-.052-5.368a4.066,4.066,0,0,0,2.983-2.343,7.524,7.524,0,0,0,.507-1.233,10.5,10.5,0,0,0,4.736,1.844,12.55,12.55,0,0,0,6.246-.614,11.812,11.812,0,0,0,3.448-2.271,65.2,65.2,0,0,1,.26,9.985,4.833,4.833,0,0,1-.65,2.181l-6.692,1.45H44.191l-7.036-1.525a4.826,4.826,0,0,1-.606-2.106Zm8.188,4.853H46.79V40.5H44.737Zm-16.4,3.681V26.256a1.1,1.1,0,0,1,1.1-1.1h.641a1.1,1.1,0,0,1,1.1,1.1v1.538a1.1,1.1,0,0,1-1.1,1.1h-.641A1.1,1.1,0,0,1,28.335,27.794Zm2.69,8.832v-6.71A2.327,2.327,0,0,0,32.4,27.794V26.256a2.327,2.327,0,0,0-1.377-2.122V22.852a1.262,1.262,0,0,1,1.53-1.233l10.96,2.375V40.351L32.02,37.86a1.269,1.269,0,0,1-.995-1.234Zm32.166-8.832a1.1,1.1,0,0,1-1.1,1.1h-.641a1.1,1.1,0,0,1-1.1-1.1V26.256a1.1,1.1,0,0,1,1.1-1.1h.641a1.1,1.1,0,0,1,1.1,1.1Z" transform="translate(-27.113 0)"/></g></svg>