<svg xmlns="http://www.w3.org/2000/svg" width="46" height="46" viewBox="0 0 46 46"><defs><style>.a{fill:#e8c8b3;}.b{fill:#63d5ee;}.c{fill:#f5d3bd;}.d{fill:#e4e4e2;}.e{fill:#c3c3c3;}.f{fill:#a8a8a8;}.g{fill:#0c82ed;}.h{fill:#009cf7;}.i{fill:#6ae4ff;}</style></defs><g transform="translate(-16 -16)"><path class="a" d="M24,267.833V264l13.033,5.367-4.6.767Z" transform="translate(-7.233 -224.233)"/><path class="b" d="M193.188,259.7a4.6,4.6,0,0,0-4.025,2.374,3.067,3.067,0,1,0,0,4.452,4.6,4.6,0,1,0,4.025-6.826Z" transform="translate(-151.888 -220.345)"/><g transform="translate(16.767 39.355)"><path class="c" d="M24,263.948l7.667,1.533,1.255-1.507a13.068,13.068,0,0,1,6.45-4.2,1.874,1.874,0,0,1,1.353,3.477,4.664,4.664,0,0,0-2.086,2.086l-.071.143h2.3v12.267H33.334a4.025,4.025,0,0,1-2.846-1.179L28.6,274.681,24,273.148Z" transform="translate(-24 -259.703)"/><path class="c" d="M207.667,323.067H200V320h7.667a1.533,1.533,0,0,1,0,3.067Z" transform="translate(-183.133 -314.222)"/><path class="c" d="M223.462,344a1.549,1.549,0,0,1-.243.318,1.532,1.532,0,0,1-1.085.448H216V344Z" transform="translate(-197.6 -335.922)"/><path class="c" d="M209.2,355.067H200V352h9.2a1.533,1.533,0,1,1,0,3.067Z" transform="translate(-183.133 -343.155)"/><path class="c" d="M207.667,387.067H200V384h7.667a1.533,1.533,0,0,1,0,3.067Z" transform="translate(-183.133 -372.088)"/><path class="c" d="M206.133,419.067H200V416h6.133a1.533,1.533,0,1,1,0,3.067Z" transform="translate(-183.133 -401.022)"/></g><path class="a" d="M130.733,392a1.533,1.533,0,0,0-1.533,1.533,1.533,1.533,0,0,0-3.067,0v.767a1.533,1.533,0,0,0-3.067,0v.767a1.533,1.533,0,0,0-3.067,0V398.9a1.533,1.533,0,0,0,3.067,0v-.767a1.533,1.533,0,0,0,3.067,0v-.767a1.533,1.533,0,0,0,3.067,0V396.6a1.533,1.533,0,1,0,3.067,0v-3.067A1.533,1.533,0,0,0,130.733,392Z" transform="translate(-94.033 -339.967)"/><path class="d" d="M398.133,29.367H392V25.342A1.342,1.342,0,0,1,393.342,24h3.45a1.342,1.342,0,0,1,1.342,1.342Z" transform="translate(-339.967 -7.233)"/><path class="d" d="M288.594,40h-6.9v.016l-4.06,4.584,2.527,1.738,3.067-3.271h5.367Z" transform="translate(-236.561 -21.7)"/><path class="e" d="M408,80h3.067v6.133H408Z" transform="translate(-354.433 -57.867)"/><path class="f" d="M408,80h3.067v1.533H408Z" transform="translate(-354.433 -57.867)"/><path class="d" d="M384,144h7.667v3.067H384Z" transform="translate(-332.733 -115.733)"/><path class="g" d="M362.3,176h7.667a2.3,2.3,0,0,1,2.3,2.3V199H360V178.3A2.3,2.3,0,0,1,362.3,176Z" transform="translate(-311.033 -144.667)"/><path class="h" d="M262.954,132.736a1.706,1.706,0,0,0,2.409-2.3L263.9,128l-1.463,2.438A1.706,1.706,0,0,0,262.954,132.736Z" transform="translate(-222.601 -101.267)"/><circle class="b" cx="1.5" cy="1.5" r="1.5" transform="translate(34 34)"/><circle class="b" cx="2.5" cy="2.5" r="2.5" transform="translate(26 28)"/><circle class="b" cx="2" cy="2" r="2" transform="translate(46 53)"/><circle class="i" cx="1.5" cy="1.5" r="1.5" transform="translate(47 54)"/><circle class="i" cx="1.5" cy="1.5" r="1.5" transform="translate(27 29)"/><circle class="i" cx="1" cy="1" r="1" transform="translate(34 34)"/><path class="i" d="M260.469,278.769a.767.767,0,0,1-.723-.511,1.534,1.534,0,0,0-2.468-.632.767.767,0,0,1-1.023-1.142,3.067,3.067,0,0,1,4.937,1.263.767.767,0,0,1-.723,1.022Z" transform="translate(-217 -234.814)"/><path class="h" d="M400,240h8.433v10.733H400Z" transform="translate(-347.2 -202.533)"/><path class="h" d="M385.533,201.533h-.767a.767.767,0,0,1,0-1.533h.767a.767.767,0,1,1,0,1.533Z" transform="translate(-332.733 -166.367)"/><path class="h" d="M427.067,201.533h-2.3a.767.767,0,0,1,0-1.533h2.3a.767.767,0,1,1,0,1.533Z" transform="translate(-368.9 -166.367)"/><path class="h" d="M415.667,377.533h-6.9a.767.767,0,0,1,0-1.533h6.9a.767.767,0,1,1,0,1.533Z" transform="translate(-354.433 -325.5)"/><path class="h" d="M355.067,377.533h-2.3a.767.767,0,0,1,0-1.533h2.3a.767.767,0,1,1,0,1.533Z" transform="translate(-303.8 -325.5)"/><path class="e" d="M376,40h1.533v3.067H376Z" transform="translate(-325.5 -21.7)"/><path class="a" d="M223.462,344a1.549,1.549,0,0,1-.243.318,1.532,1.532,0,0,1-1.085.448h-5.75a.383.383,0,0,1,0-.767Z" transform="translate(-180.833 -296.567)"/><path class="a" d="M224.995,376a1.548,1.548,0,0,1-.243.318,1.532,1.532,0,0,1-1.085.448h-7.283a.383.383,0,1,1,0-.767Z" transform="translate(-180.833 -325.5)"/><path class="a" d="M208.995,408a1.548,1.548,0,0,1-.243.318,1.532,1.532,0,0,1-1.085.448H200V408Z" transform="translate(-166.367 -354.433)"/><path class="a" d="M192.995,440a1.528,1.528,0,0,1-1.328.767H184V440Z" transform="translate(-151.9 -383.367)"/><path class="c" d="M130.733,400a1.533,1.533,0,0,0-1.533,1.533,1.533,1.533,0,0,0-3.067,0v.767a1.533,1.533,0,0,0-3.067,0v.767a1.533,1.533,0,0,0-3.067,0V406.9a1.533,1.533,0,0,0,3.067,0v-.767a1.533,1.533,0,0,0,3.067,0v-.767a1.533,1.533,0,0,0,3.067,0V404.6a1.533,1.533,0,0,0,3.067,0v-3.067A1.533,1.533,0,0,0,130.733,400Z" transform="translate(-94.033 -347.2)"/><path d="M16.524,266.639l4.428,1.476,1.76,1.76a4.786,4.786,0,0,0,2.316,1.282.763.763,0,0,0,.172.019v1.636a2.3,2.3,0,0,0,4.238,1.236,2.3,2.3,0,0,0,3.067-.767,2.3,2.3,0,0,0,3.067-.767,2.3,2.3,0,0,0,3.3-1.236h.9a2.3,2.3,0,0,0,2.138-3.147,2.3,2.3,0,0,0,1.533-3.067,2.3,2.3,0,0,0,1.123-3.733,5.367,5.367,0,1,0-7.478-7.584,3.815,3.815,0,0,0-1.917-.514.757.757,0,0,0-.113.01c-.013-.028-.025-.055-.039-.083a2.641,2.641,0,0,0-3.087-1.358,13.773,13.773,0,0,0-6.069,3.609l-8.826-3.252a.767.767,0,0,0-1.032.719v13.033a.767.767,0,0,0,.524.727Zm11.742,6.173a.767.767,0,0,1-1.533,0v-3.833a.767.767,0,0,1,1.533,0Zm3.067-.767a.767.767,0,1,1-1.533,0v-3.833a.767.767,0,0,1,1.533,0Zm3.067-.767a.767.767,0,0,1-1.533,0v-3.833a.767.767,0,1,1,1.533,0Zm2.3,0a.768.768,0,0,1-.767-.767v-3.067a.767.767,0,1,1,1.533,0v3.067A.768.768,0,0,1,36.7,271.278Zm3.067-1.533H39v-1.533h.767a.767.767,0,1,1,0,1.533Zm-4.609-14.57a2.676,2.676,0,0,0,.1-.4,2.288,2.288,0,0,1,1.489.626.767.767,0,0,0,1.2-.185,3.833,3.833,0,1,1,5.621,4.946,2.29,2.29,0,0,0-2.267-2.68H32.777a3.9,3.9,0,0,1,1.057-.776A2.623,2.623,0,0,0,35.158,255.175Zm-2.809-1.9a1.107,1.107,0,0,1,.8,2.054,5.465,5.465,0,0,0-2.429,2.429l-.071.143a.767.767,0,0,0,.685,1.11H41.3a.767.767,0,1,1,0,1.533H35.933a.767.767,0,0,0,0,1.533h6.9a.767.767,0,1,1,0,1.533h-6.9a.767.767,0,1,0,0,1.533H41.3a.767.767,0,1,1,0,1.533H38.868a2.3,2.3,0,0,0-3.7-.946,2.3,2.3,0,0,0-3.471.476,2.3,2.3,0,0,0-3.067.767,2.3,2.3,0,0,0-3.429,2v.638a3.254,3.254,0,0,1-1.4-.826L21.909,266.9a.767.767,0,0,0-.3-.185l-4.076-1.359v-7.712l6.75,1.35a.767.767,0,0,0,.739-.261l1.255-1.507a12.254,12.254,0,0,1,6.071-3.953Zm-7.579,3.368-.633.76-6.6-1.321v-2.105Z" transform="translate(0 -213.111)"/><path d="M289.025,30.664v-2.4a.767.767,0,0,0-.767-.767h-1.533V22.9h.767a.767.767,0,0,0,.767-.767V18.108A2.111,2.111,0,0,0,286.15,16H282.7a2.112,2.112,0,0,0-2.028,1.533h-6.214a.766.766,0,0,0-.65.361l-3.984,4.5a.767.767,0,0,0,.14,1.14l2.527,1.738a.767.767,0,0,0,.994-.107l2.84-3.03h4.268a.767.767,0,0,0,.767.767h.767v4.6h-1.533a.767.767,0,0,0-.767.767v2.4a3.072,3.072,0,0,0-2.3,2.97v18.4a3.067,3.067,0,1,0,3.067,3.067h9.967a.767.767,0,0,0,.767-.767v-20.7A3.072,3.072,0,0,0,289.025,30.664Zm.767,16.77h-6.9v-9.2h6.9Zm-7.667-29.325a.576.576,0,0,1,.575-.575h3.45a.576.576,0,0,1,.575.575v3.258h-4.6ZM275.992,20.6a.767.767,0,0,0-.559.242l-2.616,2.79-1.27-.873,3.271-3.693h5.774V20.6Zm7.667,2.3h1.533v4.6h-1.533Zm-2.3,6.133h6.133v1.533h-6.133Zm-3.833,27.6a1.533,1.533,0,1,1,1.533-1.533A1.533,1.533,0,0,1,277.525,56.633Zm2.655-3.067a3.089,3.089,0,0,0-1.121-1.121v-.413h1.533a.767.767,0,0,0,0-1.533h-1.533V33.633a1.535,1.535,0,0,1,1.533-1.533h7.667a1.535,1.535,0,0,1,1.533,1.533V36.7h-7.667a.767.767,0,0,0-.767.767V48.2a.767.767,0,0,0,.767.767h7.667V50.5h-6.133a.767.767,0,0,0,0,1.533h6.133v1.533Z" transform="translate(-229.325)"/><path d="M255.286,126.14a2.472,2.472,0,0,0,3.492-3.33l-1.463-2.438a.767.767,0,0,0-1.315,0l-1.463,2.438A2.47,2.47,0,0,0,255.286,126.14Zm.566-2.541.806-1.343.806,1.343a.939.939,0,1,1-1.611,0Z" transform="translate(-215.357 -94.033)"/><path d="M194.3,196.6a2.3,2.3,0,1,0-2.3-2.3A2.3,2.3,0,0,0,194.3,196.6Zm0-3.067a.767.767,0,1,1-.767.767A.767.767,0,0,1,194.3,193.533Z" transform="translate(-159.133 -159.133)"/><path d="M115.067,142.133A3.067,3.067,0,1,0,112,139.067,3.067,3.067,0,0,0,115.067,142.133Zm0-4.6a1.533,1.533,0,1,1-1.533,1.533A1.533,1.533,0,0,1,115.067,137.533Z" transform="translate(-86.8 -108.5)"/><path d="M257.278,277.626a1.534,1.534,0,0,1,2.468.632.767.767,0,0,0,1.446-.511,3.067,3.067,0,0,0-4.937-1.263.767.767,0,1,0,1.023,1.142Z" transform="translate(-217 -234.814)"/><path d="M385.533,201.533a.767.767,0,1,0,0-1.533h-.767a.767.767,0,0,0,0,1.533Z" transform="translate(-332.733 -166.367)"/><path d="M424.767,201.533h2.3a.767.767,0,1,0,0-1.533h-2.3a.767.767,0,0,0,0,1.533Z" transform="translate(-368.9 -166.367)"/></g></svg>