<svg width="46" height="46"  viewBox="-72 0 480 480.00005" xmlns="http://www.w3.org/2000/svg"><path d="m328.042969 184h-320c40-80 48-176 48-176h224s8 96 48 176zm0 0" fill="#fcf05a"/><path d="m79.636719 90.527344-15.199219-5.046875c4.621094-14.738281 7.179688-30.042969 7.605469-45.480469v-8h32v16h-16.253907c-1.066406 14.441406-3.804687 28.714844-8.152343 42.527344zm0 0" fill="#ffcd85"/><path d="m290.292969 160h-34.25v-16h13.753906l-5.511719-22.0625 15.519532-3.875zm0 0" fill="#ffcd85"/><path d="m152.042969 184h32v48h-32zm0 0" fill="#cfdfe8"/><path d="m104.042969 232h128v32h-128zm0 0" fill="#be2821"/><path d="m112.042969 264h112v48h-112zm0 0" fill="#dd3e46"/><path d="m8.042969 312h320v32h-320zm0 0" fill="#f49600"/><path d="m24.042969 344h288v128h-288zm0 0" fill="#f9bb4b"/><path d="m56.042969 376h224v96h-224zm0 0" fill="#5a6470"/><path d="m144.042969 448c0 13.253906-10.746094 24-24 24-13.253907 0-24-10.746094-24-24 0-13.257812 24-32 24-32s24 18.742188 24 32zm0 0" fill="#fcf05a"/><path d="m192.042969 448c0 13.253906-10.746094 24-24 24-13.253907 0-24-10.746094-24-24 0-13.257812 24-40 24-40s24 26.742188 24 40zm0 0" fill="#f49600"/><path d="m240.042969 448c0 13.253906-10.746094 24-24 24-13.253907 0-24-10.746094-24-24 0-13.257812 24-32 24-32s24 18.742188 24 32zm0 0" fill="#fcf05a"/><path d="m136.042969 264h16v24h-16zm0 0" fill="#e6ada3"/><path d="m176.042969 288h16v24h-16zm0 0" fill="#e6ada3"/><path d="m72.042969 40c-.421875 15.4375-2.976563 30.742188-7.589844 45.480469l15.199219 5.046875c4.34375-13.8125 7.074218-28.085938 8.136718-42.527344h16.253907v-16h-32zm0 0"/><path d="m279.804688 118.0625-15.519532 3.875 5.511719 22.0625h-13.753906v16h34.25zm0 0"/><path d="m.0429688 304v48h16.0000002v128h304v-128h16v-48h-104v-32h8v-48h-48v-32h136c2.78125.015625 5.371093-1.414062 6.835937-3.773438 1.46875-2.363281 1.609375-5.316406.363282-7.800781-38.824219-77.601562-47.109376-172.144531-47.199219-173.089843-.34375-4.15625-3.828125-7.351563-8-7.335938h-224c-4.171875-.015625-7.652344 3.179688-8 7.335938-.070313.945312-8.359375 95.457031-47.199219 173.089843-1.242188 2.484375-1.105469 5.4375.363281 7.800781 1.46875 2.359376 4.058594 3.789063 6.835938 3.773438h136v32h-48v48h8v32zm120.0000002 160c-8.835938 0-16-7.164062-16-16 0-4.664062 7.59375-13.992188 16-21.550781 8.410156 7.558593 16 16.886719 16 21.550781 0 8.835938-7.164063 16-16 16zm48 0c-8.835938 0-16-7.164062-16-16 0-5.105469 7.511719-17.007812 16-27.609375 8.496093 10.65625 16 22.65625 16 27.609375 0 8.835938-7.164063 16-16 16zm48 0c-8.835938 0-16-7.164062-16-16 0-4.664062 7.59375-13.992188 16-21.550781 8.410156 7.558593 16 16.886719 16 21.550781 0 8.835938-7.164063 16-16 16zm56 0h-28.445313c2.878906-4.84375 4.414063-10.367188 4.445313-16 0-16.335938-22.550781-34.777344-27.070313-38.304688-2.894531-2.261718-6.960937-2.261718-9.855468 0-6.785157 5.324219-12.9375 11.414063-18.328126 18.144532-5.492187-8.945313-11.78125-17.375-18.792968-25.183594-1.558594-1.617188-3.707032-2.53125-5.953125-2.53125-2.246094 0-4.394531.914062-5.949219 2.53125-7.011719 7.808594-13.304688 16.238281-18.792969 25.183594-5.394531-6.730469-11.542969-12.820313-18.328125-18.144532-2.894531-2.261718-6.960937-2.261718-9.855468 0-4.519532 3.527344-27.074219 21.96875-27.074219 38.304688.035156 5.632812 1.570312 11.15625 4.449219 16h-28.449219v-80h208zm32 0h-16v-96h-240v96h-16v-112h272zm-283.3125-288c21.957031-50.953125 36.28125-104.867188 42.511719-160h209.601562c6.242188 55.132812 20.578125 109.046875 42.542969 160zm155.3125 16v32h-16v-32zm-64 48h112v16h-112zm64 48v16h-56v-32h16v16h16v-16h64v32h-24v-16zm144 32v16h-304v-16zm0 0"/></svg>