<svg xmlns="http://www.w3.org/2000/svg" width="47.738" height="43.02" viewBox="0 0 47.738 43.02"><defs><style>.a{fill:#f5f0f0;}.b{fill:#e8ded8;}.c{fill:#d8cec9;}.d{fill:#dd636e;}.e{fill:#ffd064;}.f{fill:#da4a54;}.g{fill:#ebb044;}</style></defs><g transform="translate(0.699 0.699)"><g transform="translate(20.922 5.821)"><path class="a" d="M257.312,107.933A12.71,12.71,0,1,1,244.6,95.225,12.651,12.651,0,0,1,257.312,107.933Z" transform="translate(-231.895 -95.225)"/><path class="b" d="M247.811,120.236a12.708,12.708,0,1,1,0-24.6,12.711,12.711,0,0,0,0,24.6Z" transform="translate(-231.895 -95.229)"/><path class="c" d="M279.132,139.826a12.73,12.73,0,0,1-2.637,2.636l-17.779-17.779a12.752,12.752,0,0,1,2.636-2.636Z" transform="translate(-256.216 -119.546)"/></g><g transform="translate(0 24.93)"><path class="d" d="M23.216,300.178l3.448,8.258-3.448,8.434q-3.873,0-7.747-.116A8.207,8.207,0,0,1,7.5,308.6v-.158a8.206,8.206,0,0,1,7.967-8.15Q19.341,300.178,23.216,300.178Z" transform="translate(-7.501 -300.178)"/><path class="e" d="M191.758,308.441v.16a8.205,8.205,0,0,1-7.967,8.148q-3.873.118-7.748.118V300.175q3.873,0,7.748.118A8.205,8.205,0,0,1,191.758,308.441Z" transform="translate(-160.329 -300.175)"/><path class="f" d="M23.216,398.273q-3.873,0-7.747-.118A8.2,8.2,0,0,1,7.5,390.007v-.056c.008,1.375,3.559,2.5,7.967,2.54,2.583.024,6.2.036,8.784.036" transform="translate(-7.501 -381.58)"/><path class="g" d="M191.755,389.957v.056a8.205,8.205,0,0,1-7.967,8.148q-3.873.118-7.748.118v-5.746q3.873,0,7.748-.035C188.2,392.456,191.744,391.332,191.755,389.957Z" transform="translate(-160.326 -381.586)"/></g><g transform="translate(10.134)"><path class="a" d="M203.411,37.682l-.187.129a1.522,1.522,0,0,1-2.055-.306l-1.532-1.926a1.522,1.522,0,0,1,.327-2.2l.464-.32a1.522,1.522,0,0,1,2.173.477l1.255,2.117A1.522,1.522,0,0,1,203.411,37.682Z" transform="translate(-191.557 -32.79)"/><path class="a" d="M139.031,113.529l-.1.2A1.522,1.522,0,0,1,137,114.5l-2.29-.9a1.522,1.522,0,0,1-.817-2.069l.242-.509a1.522,1.522,0,0,1,2.12-.673l2.145,1.206A1.522,1.522,0,0,1,139.031,113.529Z" transform="translate(-132.11 -102.935)"/><path class="a" d="M121.69,212.216l.018.226a1.522,1.522,0,0,1-1.292,1.627l-2.434.364a1.522,1.522,0,0,1-1.742-1.384l-.045-.562a1.522,1.522,0,0,1,1.5-1.643l2.461-.028A1.522,1.522,0,0,1,121.69,212.216Z" transform="translate(-116.19 -194.217)"/></g></g><g transform="translate(0 0)"><path d="M45.5,93.717a.7.7,0,1,0-1.165.774,12,12,0,0,1,.1,13.119L27.848,91.024a12,12,0,0,1,14.8,1.441.7.7,0,0,0,.968-1.009A13.409,13.409,0,0,0,22.225,106.9c-4.517-.1-9.076-.085-13.579.052a8.9,8.9,0,0,0-6.112,2.68A8.8,8.8,0,0,0,0,115.8v.16a8.88,8.88,0,0,0,3.744,7.2.7.7,0,1,0,.81-1.14,7.479,7.479,0,0,1-3.156-6.06V115.8a7.4,7.4,0,0,1,2.134-5.19,7.507,7.507,0,0,1,5.156-2.261c2.332-.071,4.678-.108,7.026-.114v15.287c-2.348-.006-4.695-.044-7.026-.115a7.566,7.566,0,0,1-1.828-.281.7.7,0,0,0-.382,1.345,8.965,8.965,0,0,0,2.167.334c2.578.079,5.172.118,7.768.118s5.191-.039,7.768-.118a8.9,8.9,0,0,0,6.113-2.68,8.8,8.8,0,0,0,2.534-6.168v-.16a8.868,8.868,0,0,0-.108-1.355A13.411,13.411,0,0,0,47.738,101.13,13.344,13.344,0,0,0,45.5,93.717ZM31.429,115.955a7.4,7.4,0,0,1-2.134,5.191,7.5,7.5,0,0,1-5.156,2.261c-2.331.071-4.678.108-7.026.115V108.234c2.348.006,4.694.043,7.026.114a7.507,7.507,0,0,1,5.156,2.261,7.4,7.4,0,0,1,2.134,5.189Zm.929-2.977a8.931,8.931,0,0,0-8.177-6.028l-.365-.01a12.008,12.008,0,0,1,.406-12.291l16.587,16.587a11.939,11.939,0,0,1-6.482,1.9,12.157,12.157,0,0,1-1.97-.162Zm9.6-2.576-16.9-16.9a12.111,12.111,0,0,1,1.647-1.647l16.9,16.9A12.112,12.112,0,0,1,41.954,110.4Z" transform="translate(0 -81.902)"/><path d="M193.824,31.146a2.227,2.227,0,0,0,3,.446l.187-.129a2.228,2.228,0,0,0,.65-2.961l-1.255-2.117a2.221,2.221,0,0,0-3.171-.7l-.464.32a2.221,2.221,0,0,0-.477,3.212Zm-.608-3.43a.815.815,0,0,1,.347-.556l.464-.32a.813.813,0,0,1,.464-.146.832.832,0,0,1,.179.02.814.814,0,0,1,.531.384l1.255,2.117a.825.825,0,0,1-.241,1.1l-.187.129a.825.825,0,0,1-1.111-.165l-1.532-1.926A.815.815,0,0,1,193.217,27.717Z" transform="translate(-173.926 -25.297)"/><path d="M127.666,107.455l2.29.9a2.2,2.2,0,0,0,.808.154,2.229,2.229,0,0,0,2.012-1.267l.1-.2a2.228,2.228,0,0,0-.918-2.89l-2.145-1.206a2.221,2.221,0,0,0-3.095.983l-.242.509a2.221,2.221,0,0,0,1.192,3.02Zm.071-2.42.242-.509a.814.814,0,0,1,.494-.431.828.828,0,0,1,.251-.039.817.817,0,0,1,.4.106l2.145,1.206a.825.825,0,0,1,.34,1.07l-.1.2a.825.825,0,0,1-1.044.412l-2.29-.9a.823.823,0,0,1-.442-1.118Z" transform="translate(-114.487 -95.445)"/><path d="M108.744,206.3a2.221,2.221,0,0,0,2.217,2.043,2.2,2.2,0,0,0,.326-.024l2.434-.364a2.228,2.228,0,0,0,1.886-2.374l-.018-.226a2.228,2.228,0,0,0-2.214-2.044h-.026l-2.461.028a2.221,2.221,0,0,0-2.189,2.4Zm1.561-1.294a.814.814,0,0,1,.6-.268l2.461-.028h.01a.825.825,0,0,1,.82.757l.018.226a.825.825,0,0,1-.7.879l-2.434.364a.823.823,0,0,1-.942-.748l-.045-.562A.814.814,0,0,1,110.305,205.01Z" transform="translate(-98.558 -186.717)"/></g></svg>