<svg xmlns="http://www.w3.org/2000/svg" width="33.274" height="33.275" viewBox="0 0 33.274 33.275"><defs><style>.a{fill:#fff;}.b{fill:#1aa9b2;}.c{fill:#11cbd7;}.d{fill:#241a47;}</style></defs><g transform="translate(-0.001)"><path class="a" d="M15.373,31.3h8.363V39.66a3.781,3.781,0,0,0,7.562,0V15.372a3.781,3.781,0,0,0-7.562,0v8.363H15.373a3.781,3.781,0,0,0,0,7.562Z" transform="translate(-10.879 -10.879)"/><path class="b" d="M213.744,23.735H205.38V15.372a3.781,3.781,0,0,0-7.562,0V39.66a3.781,3.781,0,0,0,7.562,0V31.3h8.363a3.781,3.781,0,0,0,0-7.562Z" transform="translate(-184.961 -10.879)"/><path class="c" d="M70.672,23.735H62.309V15.372c0-2.055-.213-3.737-2.269-3.737a3.786,3.786,0,0,0-3.781,3.737v8.363H50.966a3.781,3.781,0,0,0,0,7.562h5.294V39.66A3.786,3.786,0,0,0,60.041,43.4c2.055,0,2.269-1.682,2.269-3.737V31.3h8.363a3.781,3.781,0,0,0,0-7.562Z" transform="translate(-44.159 -10.879)"/><path class="d" d="M16.638,33.275A4.52,4.52,0,0,1,12.1,28.781V21.175H4.494a4.538,4.538,0,0,1,0-9.075H12.1V4.493a4.538,4.538,0,0,1,9.075,0V12.1h7.607a4.538,4.538,0,0,1,0,9.075H21.176v7.607A4.52,4.52,0,0,1,16.638,33.275ZM4.494,13.612a3.025,3.025,0,0,0,0,6.05h8.363a.756.756,0,0,1,.756.756v8.363a3.025,3.025,0,0,0,6.05,0V20.418a.756.756,0,0,1,.756-.756h8.363a3.025,3.025,0,0,0,0-6.05H20.419a.756.756,0,0,1-.756-.756V4.493a3.025,3.025,0,0,0-6.05,0v8.363a.756.756,0,0,1-.756.756H4.494Z"/></g></svg>